Coordinates
version=1
nRows=18
nColumns=22
inDegrees=yes

Units are S.I. units (second, meters, Newtons, ...)
If the header above contains a line with 'inDegrees', this indicates whether rotational values are in degrees (yes) or radians (no).

endheader
time	pelvis_tilt	pelvis_list	pelvis_rotation	pelvis_tx	pelvis_ty	pelvis_tz	hip_flexion_r	hip_adduction_r	hip_rotation_r	knee_angle_r	ankle_angle_r	subtalar_angle_r	hip_flexion_l	hip_adduction_l	hip_rotation_l	knee_angle_l	ankle_angle_l	subtalar_angle_l	lumbar_extension	lumbar_bending	lumbar_rotation
      0.01000000	    -14.55148994	     -1.33771472	     -5.31256980	     -0.68222986	      0.97883261	      0.12456150	     21.82759447	      3.77638648	     -1.85356699	    -17.46120168	     15.37923202	     -5.62787917	     21.29715131	     -1.42403968	     -1.46979484	    -17.20340059	     17.50220411	     -2.91788626	      9.80772341	      3.54744905	      2.68139919
      0.02000000	    -14.55187218	     -1.33863746	     -5.31305345	     -0.68221648	      0.97883097	      0.12454884	     21.82765320	      3.77629958	     -1.85344039	    -17.46115518	     15.37908392	     -5.62763423	     21.29705689	     -1.42391323	     -1.46989493	    -17.20367815	     17.50244409	     -2.91763584	      9.80752233	      3.54726974	      2.68121257
      0.03000000	    -14.54543927	     -1.35270858	     -5.32194350	     -0.68223695	      0.97882954	      0.12454820	     21.82812691	      3.79376063	     -1.83508441	    -17.47481509	     15.36467920	     -5.58935870	     21.30902318	     -1.44379282	     -1.50207328	    -17.24149464	     17.53864491	     -2.88031322	      9.79016577	      3.56630555	      2.66255124
      0.04000000	    -14.54514398	     -1.35272745	     -5.32849569	     -0.68220225	      0.97882944	      0.12453913	     21.82558127	      3.79374275	     -1.83799119	    -17.47345505	     15.36672324	     -5.58596800	     21.30802999	     -1.44477092	     -1.50265227	    -17.24648278	     17.53907733	     -2.87631376	      9.79284391	      3.56763896	      2.66532598
      0.05000000	    -14.53432722	     -1.35861356	     -5.33408861	     -0.68221203	      0.97883300	      0.12453165	     21.82234938	      3.79885585	     -1.83800055	    -17.48884065	     15.38013804	     -5.56103079	     21.31434483	     -1.45458979	     -1.52864483	    -17.28063964	     17.54932979	     -2.84941740	      9.77074847	      3.57322700	      2.67546124
      0.06000000	    -14.53328256	     -1.35800700	     -5.33802094	     -0.68217566	      0.97883263	      0.12450971	     21.82055648	      3.79692829	     -1.83719370	    -17.49076550	     15.38060153	     -5.55903791	     21.31235026	     -1.45355948	     -1.52968490	    -17.28353236	     17.55071237	     -2.84732842	      9.77216449	      3.57681799	      2.67426231
      0.07000000	    -14.51909824	     -1.35973365	     -5.34575075	     -0.68218166	      0.97884030	      0.12450512	     21.81621728	      3.79936740	     -1.82702671	    -17.51106465	     15.38926014	     -5.54094685	     21.31112918	     -1.45784191	     -1.54621182	    -17.31076577	     17.56597742	     -2.83131028	      9.74565009	      3.58060372	      2.67651876
      0.08000000	    -14.51706085	     -1.35914844	     -5.35110879	     -0.68213575	      0.97884029	      0.12449624	     21.81258773	      3.79849093	     -1.82737367	    -17.51225745	     15.39073338	     -5.53882763	     21.30830742	     -1.45737491	     -1.54651101	    -17.31594691	     17.56724385	     -2.82958623	      9.74769577	      3.58324742	      2.67804701
      0.09000000	    -14.48640487	     -1.36954541	     -5.37012437	     -0.68210750	      0.97887275	      0.12451885	     21.78181214	      3.81233958	     -1.81369597	    -17.51985733	     15.41624670	     -5.49593001	     21.28459793	     -1.47476364	     -1.58073421	    -17.34152987	     17.60137587	     -2.80293394	      9.70442345	      3.59823211	      2.70084200
      0.10000000	    -14.48371284	     -1.36762106	     -5.37673254	     -0.68205772	      0.97887053	      0.12452325	     21.77752109	      3.81131404	     -1.81260041	    -17.52131912	     15.41590279	     -5.49462471	     21.28238325	     -1.47295955	     -1.57550887	    -17.35056816	     17.60059913	     -2.80228160	      9.70597711	      3.60088519	      2.70347334
      0.11000000	    -14.47162216	     -1.37062484	     -5.38369608	     -0.68205749	      0.97887328	      0.12452911	     21.76649675	      3.81628946	     -1.80075070	    -17.52479928	     15.42049542	     -5.48843728	     21.28635976	     -1.47433057	     -1.55530596	    -17.38607623	     17.60486975	     -2.80127059	      9.68279224	      3.60666228	      2.72851874
      0.12000000	    -14.44025810	     -1.39429866	     -5.40258239	     -0.68199835	      0.97890612	      0.12457700	     21.72303391	      3.84671186	     -1.78114281	    -17.51661158	     15.43550292	     -5.46329147	     21.26113209	     -1.50339140	     -1.56191192	    -17.41798179	     17.64671320	     -2.80432783	      9.64324810	      3.63777439	      2.74568981
      0.13000000	    -14.43103932	     -1.39282826	     -5.41264658	     -0.68196311	      0.97890603	      0.12459580	     21.71010980	      3.84743560	     -1.77502600	    -17.51368520	     15.43591643	     -5.45966782	     21.26340856	     -1.50066399	     -1.54212949	    -17.44895042	     17.64781128	     -2.80495999	      9.63060582	      3.64247809	      2.76798436
      0.14000000	    -14.41746421	     -1.39859204	     -5.42308999	     -0.68191980	      0.97891153	      0.12463239	     21.69189907	      3.85762970	     -1.75994051	    -17.51319868	     15.44237101	     -5.45542795	     21.26380174	     -1.50680881	     -1.52084166	    -17.48815657	     17.65980275	     -2.80741782	      9.61303319	      3.65242402	      2.79450072
      0.15000000	    -14.39177030	     -1.42008679	     -5.44341935	     -0.68185667	      0.97893573	      0.12469812	     21.65168568	      3.88807766	     -1.73134441	    -17.50071859	     15.45104521	     -5.44327048	     21.24780838	     -1.53459653	     -1.51863453	    -17.52693257	     17.70088330	     -2.81555380	      9.58000995	      3.68314573	      2.81745956
      0.16000000	    -14.38386890	     -1.41633255	     -5.45275488	     -0.68181558	      0.97893813	      0.12471015	     21.63769540	      3.88537016	     -1.72411997	    -17.49337502	     15.45090388	     -5.44103198	     21.25338831	     -1.52936238	     -1.50062332	    -17.56065387	     17.70250259	     -2.81620906	      9.56642594	      3.68888777	      2.84330923
      0.17000000	    -14.37312143	     -1.41701222	     -5.46091316	     -0.68177045	      0.97894410	      0.12473186	     21.62145312	      3.88849797	     -1.70636130	    -17.49086805	     15.45458740	     -5.43903282	     21.25756137	     -1.53003893	     -1.48516926	    -17.59876628	     17.71127227	     -2.81722267	      9.55110333	      3.69599185	      2.86830493
      0.18000000	    -14.36436208	     -1.41658557	     -5.47035516	     -0.68173423	      0.97894799	      0.12473781	     21.60686912	      3.89012844	     -1.68911289	    -17.48538384	     15.45865559	     -5.43755905	     21.26323583	     -1.52962222	     -1.47753553	    -17.63338996	     17.72179999	     -2.81799535	      9.53452207	      3.70481915	      2.88895169
